<?xml version="1.0" encoding="utf-8"?>
<!-- Generator: Adobe Illustrator 28.3.0, SVG Export Plug-In . SVG Version: 6.00 Build 0)  -->
<svg version="1.1" id="Layer_1" xmlns="http://www.w3.org/2000/svg" xmlns:xlink="http://www.w3.org/1999/xlink" x="0px" y="0px"
	 viewBox="0 0 754.46 723.72" style="enable-background:new 0 0 754.46 723.72;" xml:space="preserve">
<style type="text/css">
	.st0{fill:#999999;}
	.st1{fill:#666666;}
	.st2{fill:#1230FF;}
	.st3{fill:none;}
	.st4{fill:#00FFD4;}
	.st5{fill:#FF00EC;}
	.st6{fill:none;stroke:#FF00EC;stroke-miterlimit:10;}
	.st7{fill:none;stroke:#FF00EC;stroke-width:0.5679;stroke-miterlimit:10;}
	.st8{fill:none;stroke:#FF00EC;stroke-width:1.495;stroke-miterlimit:10;}
	.st9{fill:none;stroke:#FF00EC;stroke-width:1.6507;stroke-miterlimit:10;}
	.st10{fill:none;stroke:#FF00EC;stroke-width:1.499;stroke-miterlimit:10;}
	.st11{fill:none;stroke:#FF00FF;stroke-width:20;stroke-miterlimit:10;}
	.st12{fill:#FFFFFF;}
</style>
<path class="st2" d="M0.07,720.88l32.05-89.75c0.17-0.48,0.62-0.79,1.12-0.79h27.54c0.51,0,0.96,0.32,1.13,0.8l31.8,89.75
	c0.28,0.78-0.3,1.59-1.13,1.59H69.08c-0.51,0-0.97-0.33-1.13-0.82l-5.25-15.87c-0.16-0.49-0.62-0.82-1.13-0.82H31.17
	c-0.52,0-0.98,0.33-1.14,0.83l-5.13,15.85c-0.16,0.49-0.62,0.83-1.14,0.83H1.2C0.37,722.47-0.21,721.65,0.07,720.88z M38.13,685.88
	h16.32c0.81,0,1.39-0.8,1.13-1.57l-8.21-24.86c-0.36-1.1-1.91-1.09-2.27,0L37,684.32C36.75,685.09,37.32,685.88,38.13,685.88z"/>
<path class="st2" d="M144.61,630.33c11.14,0,19.81,2.11,26,6.32c6.19,4.21,9.28,10.23,9.28,18.03c0,5.88-1.67,10.55-5,14.02
	c-2.79,2.9-6.5,4.89-11.12,5.98c-0.52,0.12-0.49,0.85,0.03,0.95c5.65,1,10.11,2.99,13.39,5.97c3.82,3.47,5.73,8.36,5.73,14.68
	c0,8.07-3.18,14.46-9.54,19.15c-6.36,4.7-15.29,7.04-26.79,7.04h-37.95c-0.27,0-0.49-0.22-0.49-0.49v-91.17
	c0-0.27,0.22-0.49,0.49-0.49H144.61z M132.37,666.57c0,0.27,0.22,0.49,0.49,0.49h12.15c3.34,0,5.94-0.83,7.83-2.5
	c1.89-1.67,2.83-3.9,2.83-6.71s-0.94-5.04-2.83-6.71c-1.89-1.67-4.5-2.5-7.83-2.5h-12.15c-0.27,0-0.49,0.22-0.49,0.49V666.57z
	 M132.37,703.56c0,0.27,0.22,0.49,0.49,0.49h13.99c3.51,0,6.25-0.83,8.23-2.5c1.98-1.66,2.96-3.99,2.96-6.98
	c0-2.98-0.98-5.31-2.96-6.98c-1.98-1.66-4.72-2.5-8.23-2.5h-13.99c-0.27,0-0.49,0.22-0.49,0.49V703.56z"/>
<path class="st2" d="M199.77,721.28v-89.75c0-0.66,0.53-1.19,1.19-1.19h21.83c0.66,0,1.19,0.53,1.19,1.19v69.22
	c0,0.66,0.53,1.19,1.19,1.19h31.31c0.66,0,1.19,0.53,1.19,1.19v18.15c0,0.66-0.53,1.19-1.19,1.19h-55.53
	C200.3,722.47,199.77,721.94,199.77,721.28z"/>
<path class="st2" d="M276.95,630.33h61.19c0.66,0,1.19,0.53,1.19,1.19v18.15c0,0.66-0.53,1.19-1.19,1.19h-36.97
	c-0.66,0-1.19,0.53-1.19,1.19v13.41c0,0.66,0.53,1.19,1.19,1.19h29.07c0.66,0,1.19,0.53,1.19,1.19v16.83c0,0.66-0.53,1.19-1.19,1.19
	h-29.07c-0.66,0-1.19,0.53-1.19,1.19v13.67c0,0.66,0.53,1.19,1.19,1.19h38.42c0.66,0,1.19,0.53,1.19,1.19v18.15
	c0,0.66-0.53,1.19-1.19,1.19h-62.64c-0.66,0-1.19-0.53-1.19-1.19v-89.75C275.76,630.87,276.29,630.33,276.95,630.33z"/>
<path class="st2" d="M402.51,651.66c3.68-7.02,8.97-12.46,15.86-16.32c6.89-3.86,15.03-5.79,24.42-5.79
	c7.46,0,14.13,1.49,20.01,4.47c5.88,2.99,10.57,7.13,14.08,12.44c3.29,4.97,5.27,10.61,5.94,16.92c0.07,0.7-0.49,1.31-1.19,1.31
	h-21.94c-0.56,0-1.04-0.4-1.16-0.95c-0.96-4.13-2.84-7.48-5.66-10.05c-3.03-2.76-6.82-4.15-11.39-4.15
	c-6.23,0-11.08,2.46-14.55,7.37c-3.47,4.92-5.2,11.41-5.2,19.48s1.73,14.57,5.2,19.48c3.46,4.92,8.31,7.37,14.55,7.37
	c4.56,0,8.36-1.38,11.39-4.15c2.82-2.57,4.7-5.92,5.66-10.05c0.13-0.55,0.6-0.95,1.16-0.95h21.94c0.7,0,1.27,0.61,1.19,1.31
	c-0.67,6.31-2.65,11.95-5.94,16.92c-3.51,5.31-8.21,9.46-14.08,12.44c-5.88,2.98-12.55,4.47-20.01,4.47
	c-9.39,0-17.53-1.93-24.42-5.79c-6.89-3.86-12.18-9.3-15.86-16.32c-3.69-7.02-5.53-15.27-5.53-24.75S398.83,658.68,402.51,651.66z"
	/>
<path class="st2" d="M489.27,720.88l32.05-89.75c0.17-0.48,0.62-0.79,1.12-0.79h27.54c0.51,0,0.96,0.32,1.13,0.8l31.8,89.75
	c0.28,0.78-0.3,1.59-1.13,1.59h-23.51c-0.51,0-0.97-0.33-1.13-0.82l-5.25-15.87c-0.16-0.49-0.62-0.82-1.13-0.82h-30.39
	c-0.52,0-0.98,0.33-1.14,0.83l-5.13,15.85c-0.16,0.49-0.62,0.83-1.14,0.83h-22.58C489.56,722.47,488.99,721.65,489.27,720.88z
	 M527.33,685.88h16.32c0.81,0,1.39-0.8,1.13-1.57l-8.21-24.86c-0.36-1.1-1.91-1.09-2.27,0l-8.1,24.86
	C525.94,685.09,526.52,685.88,527.33,685.88z"/>
<path class="st2" d="M636.39,630.33c7.02,0,13.21,1.32,18.56,3.95c5.35,2.63,9.52,6.34,12.5,11.13c2.99,4.78,4.48,10.38,4.48,16.78
	c0,5.53-1.23,10.53-3.69,15.01c-2.29,4.17-5.35,7.62-9.16,10.35c-0.48,0.34-0.65,0.97-0.39,1.49l15.43,31.72
	c0.39,0.79-0.19,1.72-1.07,1.72h-23.93c-0.46,0-0.88-0.26-1.08-0.68l-12.91-27.07c-0.2-0.42-0.62-0.68-1.08-0.68h-11.08
	c-0.66,0-1.19,0.53-1.19,1.19v26.05c0,0.66-0.53,1.19-1.19,1.19h-21.83c-0.66,0-1.19-0.53-1.19-1.19v-89.75
	c0-0.66,0.53-1.19,1.19-1.19H636.39z M621.78,673.1c0,0.66,0.53,1.19,1.19,1.19h11.44c3.95,0,7.06-1.07,9.35-3.22
	c2.28-2.15,3.42-5.11,3.42-8.89c0-3.77-1.14-6.74-3.42-8.89c-2.28-2.15-5.4-3.22-9.35-3.22h-11.44c-0.66,0-1.19,0.53-1.19,1.19
	V673.1z"/>
<path class="st2" d="M690.63,630.33h61.19c0.66,0,1.19,0.53,1.19,1.19v18.15c0,0.66-0.53,1.19-1.19,1.19h-36.97
	c-0.66,0-1.19,0.53-1.19,1.19v13.41c0,0.66,0.53,1.19,1.19,1.19h29.07c0.66,0,1.19,0.53,1.19,1.19v16.83c0,0.66-0.53,1.19-1.19,1.19
	h-29.07c-0.66,0-1.19,0.53-1.19,1.19v13.67c0,0.66,0.53,1.19,1.19,1.19h38.42c0.66,0,1.19,0.53,1.19,1.19v18.15
	c0,0.66-0.53,1.19-1.19,1.19h-62.64c-0.66,0-1.19-0.53-1.19-1.19v-89.75C689.43,630.87,689.97,630.33,690.63,630.33z"/>
<g>
	<path class="st4" d="M377.3,340.5l101.06,140.55l0.03,0.05c22.43,34.28,61.15,56.93,105.17,56.93c69.37,0,125.6-56.23,125.6-125.6
		c0-29.28-10.02-56.22-26.81-77.57l0-0.01L481.14,55.02C458.54,21.81,420.43,0,377.23,0c-43.58,0-81.97,22.19-104.49,55.89
		L171.61,196.53l-1.66,2.31c-6.5,9.89-10.29,21.72-10.29,34.43c0,24.08,13.55,44.98,33.44,55.51c7.46,3.95,15.81,6.44,24.67,7.09
		c1.55,0.11,3.11,0.19,4.68,0.19c21.29,0,40.1-10.59,51.46-26.79l71.07-98.84l0.46-0.65c11.46-15.27,29.71-25.16,50.27-25.16
		c34.68,0,62.8,28.12,62.8,62.8c0,12.67-3.76,24.45-10.22,34.32L377.3,340.5z"/>
	<path class="st2" d="M271.72,487.33c-22.89,30.76-59.53,50.7-100.82,50.7c-69.37,0-125.6-56.23-125.6-125.6
		c0-29.47,10.15-56.56,27.14-77.98l-5.12,7.12l5.12-7.12l97.51-135.6c-6.5,9.89-10.29,21.72-10.29,34.43
		c0,24.08,13.55,44.98,33.44,55.51c7.46,3.95,15.81,6.44,24.67,7.09c1.55,0.11,3.11,0.19,4.68,0.19c21.29,0,40.1-10.59,51.46-26.79
		l71.07-98.84l0.46-0.65c11.46-15.27,29.71-25.16,50.27-25.16c34.68,0,62.8,28.12,62.8,62.8c0,12.67-3.76,24.45-10.22,34.32
		L271.72,487.33"/>
</g>
</svg>
