<?xml version="1.0" encoding="utf-8"?>
<!-- Generator: Adobe Illustrator 28.3.0, SVG Export Plug-In . SVG Version: 6.00 Build 0)  -->
<svg version="1.1" id="Layer_1" xmlns="http://www.w3.org/2000/svg" xmlns:xlink="http://www.w3.org/1999/xlink" x="0px" y="0px"
	 viewBox="0 0 1077.55 212.95" style="enable-background:new 0 0 1077.55 212.95;" xml:space="preserve">
<style type="text/css">
	.st0{fill:#999999;}
	.st1{fill:#666666;}
	.st2{fill:#1230FF;}
	.st3{fill:none;}
	.st4{fill:#00FFD4;}
	.st5{fill:#FF00EC;}
	.st6{fill:none;stroke:#FF00EC;stroke-miterlimit:10;}
	.st7{fill:none;stroke:#FF00EC;stroke-width:0.5679;stroke-miterlimit:10;}
	.st8{fill:none;stroke:#FF00EC;stroke-width:1.495;stroke-miterlimit:10;}
	.st9{fill:none;stroke:#FF00EC;stroke-width:1.6507;stroke-miterlimit:10;}
	.st10{fill:none;stroke:#FF00EC;stroke-width:1.499;stroke-miterlimit:10;}
	.st11{fill:none;stroke:#FF00FF;stroke-width:20;stroke-miterlimit:10;}
	.st12{fill:#FFFFFF;}
</style>
<path class="st12" d="M331.28,150.29l31.71-88.79c0.17-0.47,0.61-0.78,1.11-0.78h27.24c0.5,0,0.95,0.32,1.11,0.79l31.46,88.79
	c0.27,0.77-0.3,1.58-1.11,1.58h-23.26c-0.51,0-0.96-0.33-1.12-0.81l-5.19-15.7c-0.16-0.48-0.61-0.81-1.12-0.81h-30.06
	c-0.51,0-0.97,0.33-1.12,0.82l-5.07,15.68c-0.16,0.49-0.61,0.82-1.12,0.82h-22.33C331.58,151.87,331.01,151.06,331.28,150.29z
	 M368.93,115.67h16.14c0.8,0,1.37-0.79,1.12-1.55l-8.12-24.59c-0.36-1.08-1.89-1.08-2.24,0l-8.02,24.59
	C367.56,114.89,368.13,115.67,368.93,115.67z"/>
<path class="st12" d="M474.27,60.72c11.02,0,19.6,2.08,25.72,6.25c6.12,4.17,9.18,10.12,9.18,17.84c0,5.82-1.65,10.44-4.95,13.87
	c-2.76,2.87-6.43,4.84-11,5.92c-0.51,0.12-0.48,0.85,0.03,0.94c5.59,0.99,10,2.96,13.25,5.91c3.77,3.43,5.66,8.27,5.66,14.52
	c0,7.99-3.15,14.3-9.44,18.95c-6.29,4.65-15.13,6.97-26.5,6.97h-37.54c-0.27,0-0.48-0.22-0.48-0.48V61.2c0-0.27,0.22-0.48,0.48-0.48
	H474.27z M462.16,96.57c0,0.27,0.22,0.48,0.48,0.48h12.02c3.3,0,5.88-0.82,7.75-2.47c1.87-1.65,2.8-3.86,2.8-6.64
	s-0.93-4.99-2.8-6.64c-1.87-1.65-4.45-2.48-7.75-2.48h-12.02c-0.27,0-0.48,0.22-0.48,0.48V96.57z M462.16,133.16
	c0,0.27,0.22,0.48,0.48,0.48h13.84c3.47,0,6.18-0.83,8.14-2.48c1.95-1.65,2.93-3.95,2.93-6.9c0-2.95-0.97-5.25-2.93-6.9
	c-1.95-1.65-4.67-2.47-8.14-2.47h-13.84c-0.27,0-0.48,0.22-0.48,0.48V133.16z"/>
<path class="st12" d="M528.83,150.69V61.9c0-0.65,0.53-1.18,1.18-1.18h21.6c0.65,0,1.18,0.53,1.18,1.18v68.47
	c0,0.65,0.53,1.18,1.18,1.18h30.97c0.65,0,1.18,0.53,1.18,1.18v17.95c0,0.65-0.53,1.18-1.18,1.18h-54.93
	C529.36,151.87,528.83,151.34,528.83,150.69z"/>
<path class="st12" d="M605.18,60.72h60.53c0.65,0,1.18,0.53,1.18,1.18v17.95c0,0.65-0.53,1.18-1.18,1.18h-36.57
	c-0.65,0-1.18,0.53-1.18,1.18v13.26c0,0.65,0.53,1.18,1.18,1.18h28.76c0.65,0,1.18,0.53,1.18,1.18v16.65c0,0.65-0.53,1.18-1.18,1.18
	h-28.76c-0.65,0-1.18,0.53-1.18,1.18v13.52c0,0.65,0.53,1.18,1.18,1.18h38c0.65,0,1.18,0.53,1.18,1.18v17.95
	c0,0.65-0.53,1.18-1.18,1.18h-61.96c-0.65,0-1.18-0.53-1.18-1.18V61.9C604,61.25,604.53,60.72,605.18,60.72z"/>
<path class="st12" d="M729.39,81.82c3.64-6.95,8.87-12.33,15.69-16.15c6.81-3.82,14.87-5.73,24.16-5.73
	c7.38,0,13.97,1.48,19.79,4.43c5.81,2.95,10.46,7.05,13.93,12.3c3.25,4.92,5.21,10.5,5.87,16.74c0.07,0.69-0.48,1.3-1.18,1.3
	l-21.71,0c-0.56,0-1.03-0.39-1.15-0.93c-0.95-4.08-2.81-7.4-5.6-9.94c-2.99-2.73-6.75-4.1-11.26-4.1c-6.17,0-10.96,2.43-14.39,7.29
	c-3.43,4.86-5.14,11.28-5.14,19.27s1.71,14.41,5.14,19.27c3.43,4.86,8.22,7.29,14.39,7.29c4.51,0,8.27-1.37,11.26-4.1
	c2.79-2.54,4.65-5.86,5.6-9.94c0.13-0.54,0.6-0.94,1.15-0.94l21.71,0c0.7,0,1.26,0.6,1.18,1.3c-0.67,6.24-2.62,11.82-5.87,16.74
	c-3.47,5.25-8.12,9.36-13.93,12.31c-5.82,2.95-12.42,4.43-19.79,4.43c-9.29,0-17.34-1.91-24.16-5.73
	c-6.81-3.82-12.04-9.2-15.69-16.15c-3.65-6.95-5.47-15.1-5.47-24.48S725.74,88.76,729.39,81.82z"/>
<path class="st12" d="M815.21,150.29l31.71-88.79c0.17-0.47,0.61-0.78,1.11-0.78h27.24c0.5,0,0.95,0.32,1.11,0.79l31.46,88.79
	c0.27,0.77-0.3,1.58-1.11,1.58h-23.26c-0.51,0-0.96-0.33-1.12-0.81l-5.19-15.7c-0.16-0.48-0.61-0.81-1.12-0.81h-30.06
	c-0.51,0-0.97,0.33-1.12,0.82l-5.07,15.68c-0.16,0.49-0.61,0.82-1.12,0.82h-22.33C815.51,151.87,814.94,151.06,815.21,150.29z
	 M852.86,115.67H869c0.8,0,1.37-0.79,1.12-1.55L862,89.53c-0.36-1.08-1.89-1.08-2.24,0l-8.02,24.59
	C851.49,114.89,852.06,115.67,852.86,115.67z"/>
<path class="st12" d="M960.75,60.72c6.95,0,13.06,1.3,18.36,3.9c5.29,2.61,9.42,6.28,12.37,11.01c2.95,4.73,4.43,10.26,4.43,16.6
	c0,5.47-1.22,10.42-3.65,14.85c-2.27,4.13-5.29,7.54-9.06,10.23c-0.47,0.34-0.64,0.96-0.39,1.48l15.27,31.38
	c0.38,0.78-0.19,1.7-1.06,1.7h-23.67c-0.46,0-0.87-0.26-1.07-0.67l-12.77-26.78c-0.2-0.41-0.61-0.67-1.07-0.67h-10.96
	c-0.65,0-1.18,0.53-1.18,1.18v25.77c0,0.65-0.53,1.18-1.18,1.18h-21.6c-0.65,0-1.18-0.53-1.18-1.18V61.9c0-0.65,0.53-1.18,1.18-1.18
	H960.75z M946.29,103.03c0,0.65,0.53,1.18,1.18,1.18h11.32c3.91,0,6.99-1.06,9.25-3.19c2.25-2.13,3.38-5.06,3.38-8.79
	c0-3.73-1.13-6.66-3.38-8.79c-2.26-2.12-5.34-3.19-9.25-3.19h-11.32c-0.65,0-1.18,0.53-1.18,1.18V103.03z"/>
<path class="st12" d="M1014.4,60.72h60.53c0.65,0,1.18,0.53,1.18,1.18v17.95c0,0.65-0.53,1.18-1.18,1.18h-36.57
	c-0.65,0-1.18,0.53-1.18,1.18v13.26c0,0.65,0.53,1.18,1.18,1.18h28.76c0.65,0,1.18,0.53,1.18,1.18v16.65c0,0.65-0.53,1.18-1.18,1.18
	h-28.76c-0.65,0-1.18,0.53-1.18,1.18v13.52c0,0.65,0.53,1.18,1.18,1.18h38c0.65,0,1.18,0.53,1.18,1.18v17.95
	c0,0.65-0.53,1.18-1.18,1.18h-61.96c-0.65,0-1.18-0.53-1.18-1.18V61.9C1013.22,61.25,1013.75,60.72,1014.4,60.72z"/>
<g>
	<path class="st12" d="M176.69,190.89c8.8,13.44,23.62,21.47,39.66,21.47c26.11,0,47.36-21.25,47.36-47.36
		c0-10.73-3.5-20.84-10.11-29.25l-0.3-0.41L171.03,20.92L171,20.87c-8.84-12.99-23.49-20.75-39.18-20.75
		c-15.85,0-30.58,7.88-39.41,21.08l-0.08,0.12L50.27,79.81c-2.29,3.51-3.5,7.59-3.5,11.79c0,8.03,4.42,15.36,11.52,19.12
		c2.64,1.4,5.49,2.22,8.49,2.44c0.63,0.05,1.14,0.07,1.62,0.07c7.05,0,13.68-3.45,17.73-9.23l0.03-0.04l29.36-40.83
		c5.69-7.59,14.39-11.95,23.87-11.95c16.45,0,29.83,13.38,29.83,29.83c0,5.81-1.68,11.45-4.85,16.3l-0.1,0.15l-27.37,38.06
		l39.74,55.26L176.69,190.89z"/>
	<path class="st12" d="M8.17,138.36l-0.04-0.03C2.75,146.2-0.08,155.35-0.08,165c0,26.11,21.25,47.36,47.36,47.36
		c15.11,0,28.96-6.96,38-19.09l72.27-100.51c2.27-3.5,3.47-7.56,3.47-11.74c0-11.93-9.7-21.63-21.63-21.63
		c-6.86,0-13.16,3.15-17.29,8.64l-29.27,40.7c-5.59,7.95-14.71,12.7-24.42,12.7c-0.68,0-1.38-0.03-2.22-0.09
		c-4.14-0.31-8.08-1.44-11.73-3.37c-8.57-4.54-14.31-12.85-15.6-22.28L8.17,138.36z"/>
</g>
</svg>
