<?xml version="1.0" encoding="utf-8"?>
<!-- Generator: Adobe Illustrator 28.3.0, SVG Export Plug-In . SVG Version: 6.00 Build 0)  -->
<svg version="1.1" id="Layer_1" xmlns="http://www.w3.org/2000/svg" xmlns:xlink="http://www.w3.org/1999/xlink" x="0px" y="0px"
	 viewBox="0 0 754.46 627.29" style="enable-background:new 0 0 754.46 627.29;" xml:space="preserve">
<style type="text/css">
	.st0{fill:#999999;}
	.st1{fill:#666666;}
	.st2{fill:#1230FF;}
	.st3{fill:none;}
	.st4{fill:#00FFD4;}
	.st5{fill:#FF00EC;}
	.st6{fill:none;stroke:#FF00EC;stroke-miterlimit:10;}
	.st7{fill:none;stroke:#FF00EC;stroke-width:0.5679;stroke-miterlimit:10;}
	.st8{fill:none;stroke:#FF00EC;stroke-width:1.495;stroke-miterlimit:10;}
	.st9{fill:none;stroke:#FF00EC;stroke-width:1.6507;stroke-miterlimit:10;}
	.st10{fill:none;stroke:#FF00EC;stroke-width:1.499;stroke-miterlimit:10;}
	.st11{fill:none;stroke:#FF00FF;stroke-width:20;stroke-miterlimit:10;}
	.st12{fill:#FFFFFF;}
	.st13{fill:url(#SVGID_1_);}
	.st14{fill:url(#SVGID_00000159460061542108106410000008595901009671479459_);}
</style>
<g>
	<linearGradient id="SVGID_1_" gradientUnits="userSpaceOnUse" x1="287.8007" y1="36.1037" x2="574.0689" y2="650.0079">
		<stop  offset="0" style="stop-color:#00FFD4"/>
		<stop  offset="1" style="stop-color:#1230FF"/>
	</linearGradient>
	<path class="st13" d="M377.31,394.56l114.4,159.09l0.04,0.05c25.39,38.81,69.22,64.45,119.05,64.45
		c78.52,0,142.17-63.65,142.17-142.17c0-33.14-11.34-63.64-30.35-87.81l0-0.01L494.84,71.42c-25.58-37.6-68.71-62.28-117.62-62.28
		c-49.33,0-92.79,25.12-118.28,63.27L144.48,231.6l-1.88,2.61c-7.36,11.19-11.65,24.58-11.65,38.98c0,27.25,15.34,50.91,37.85,62.84
		c8.44,4.48,17.9,7.29,27.93,8.03c1.75,0.13,3.51,0.22,5.3,0.22c24.09,0,45.39-11.99,58.25-30.33l80.45-111.88l0.52-0.73
		c12.97-17.29,33.63-28.48,56.9-28.48c39.26,0,71.08,31.83,71.08,71.08c0,14.34-4.26,27.68-11.56,38.84L377.31,394.56z"/>
	
		<linearGradient id="SVGID_00000078759843601777095120000016607046473793659836_" gradientUnits="userSpaceOnUse" x1="86.9764" y1="607.4382" x2="357.7154" y2="138.5044">
		<stop  offset="0" style="stop-color:#00FFD4"/>
		<stop  offset="0.0947" style="stop-color:#03DEDB"/>
		<stop  offset="0.2652" style="stop-color:#07AAE6"/>
		<stop  offset="0.4325" style="stop-color:#0B7EEF"/>
		<stop  offset="0.5928" style="stop-color:#0E5CF6"/>
		<stop  offset="0.7446" style="stop-color:#1044FB"/>
		<stop  offset="0.8841" style="stop-color:#1235FE"/>
		<stop  offset="1" style="stop-color:#1230FF"/>
	</linearGradient>
	<path style="fill:url(#SVGID_00000078759843601777095120000016607046473793659836_);" d="M257.79,560.76
		c-25.91,34.82-67.38,57.38-114.13,57.38C65.15,618.15,1.5,554.5,1.5,475.98c0-33.35,11.49-64.02,30.72-88.27l-5.79,8.06l5.79-8.06
		l110.37-153.5c-7.36,11.19-11.65,24.58-11.65,38.98c0,27.25,15.34,50.91,37.85,62.84c8.44,4.47,17.9,7.29,27.93,8.03
		c1.75,0.13,3.52,0.22,5.3,0.22c24.09,0,45.39-11.99,58.25-30.33l80.45-111.88l0.52-0.73c12.97-17.29,33.63-28.48,56.9-28.48
		c39.26,0,71.08,31.83,71.08,71.08c0,14.34-4.26,27.68-11.56,38.84L257.79,560.76z"/>
</g>
</svg>
