<svg xmlns="http://www.w3.org/2000/svg" viewBox="150 0 400 400">
<defs>
<linearGradient id="g1" gradientUnits="userSpaceOnUse" x1="287.8" y1="36.1" x2="574.07" y2="650.01">
<stop offset="0" stop-color="#00FFD4"/>
<stop offset="1" stop-color="#1230FF"/>
</linearGradient>
<linearGradient id="g2" gradientUnits="userSpaceOnUse" x1="86.98" y1="607.44" x2="357.72" y2="138.5">
<stop offset="0" stop-color="#00FFD4"/>
<stop offset="0.095" stop-color="#03DEDB"/>
<stop offset="0.265" stop-color="#07AAE6"/>
<stop offset="0.433" stop-color="#0B7EEF"/>
<stop offset="0.593" stop-color="#0E5CF6"/>
<stop offset="0.745" stop-color="#1044FB"/>
<stop offset="0.884" stop-color="#1235FE"/>
<stop offset="1" stop-color="#1230FF"/>
</linearGradient>
</defs>
<path fill="url(#g1)" d="M377.31,394.56l114.4,159.09l0.04,0.05c25.39,38.81,69.22,64.45,119.05,64.45c78.52,0,142.17-63.65,142.17-142.17c0-33.14-11.34-63.64-30.35-87.81l0-0.01L494.84,71.42c-25.58-37.6-68.71-62.28-117.62-62.28c-49.33,0-92.79,25.12-118.28,63.27L144.48,231.6l-1.88,2.61c-7.36,11.19-11.65,24.58-11.65,38.98c0,27.25,15.34,50.91,37.85,62.84c8.44,4.48,17.9,7.29,27.93,8.03c1.75,0.13,3.51,0.22,5.3,0.22c24.09,0,45.39-11.99,58.25-30.33l80.45-111.88l0.52-0.73c12.97-17.29,33.63-28.48,56.9-28.48c39.26,0,71.08,31.83,71.08,71.08c0,14.34-4.26,27.68-11.56,38.84L377.31,394.56z"/>
<path fill="url(#g2)" d="M257.79,560.76c-25.91,34.82-67.38,57.38-114.13,57.38C65.15,618.15,1.5,554.5,1.5,475.98c0-33.35,11.49-64.02,30.72-88.27l-5.79,8.06l5.79-8.06l110.37-153.5c-7.36,11.19-11.65,24.58-11.65,38.98c0,27.25,15.34,50.91,37.85,62.84c8.44,4.47,17.9,7.29,27.93,8.03c1.75,0.13,3.52,0.22,5.3,0.22c24.09,0,45.39-11.99,58.25-30.33l80.45-111.88l0.52-0.73c12.97-17.29,33.63-28.48,56.9-28.48c39.26,0,71.08,31.83,71.08,71.08c0,14.34-4.26,27.68-11.56,38.84L257.79,560.76z"/>
</svg>
