<svg width="512" height="512" viewBox="0 0 512 512" fill="none" xmlns="http://www.w3.org/2000/svg">
<rect width="512" height="512" rx="96" fill="#1432FF"/>
<g transform="translate(56, 80) scale(0.53)">
  <path fill="#00FFD4" opacity="0.9" d="M377.31,394.56l114.4,159.09l0.04,0.05c25.39,38.81,69.22,64.45,119.05,64.45
    c78.52,0,142.17-63.65,142.17-142.17c0-33.14-11.34-63.64-30.35-87.81l0-0.01L494.84,71.42c-25.58-37.6-68.71-62.28-117.62-62.28
    c-49.33,0-92.79,25.12-118.28,63.27L144.48,231.6l-1.88,2.61c-7.36,11.19-11.65,24.58-11.65,38.98c0,27.25,15.34,50.91,37.85,62.84
    c8.44,4.48,17.9,7.29,27.93,8.03c1.75,0.13,3.51,0.22,5.3,0.22c24.09,0,45.39-11.99,58.25-30.33l80.45-111.88l0.52-0.73
    c12.97-17.29,33.63-28.48,56.9-28.48c39.26,0,71.08,31.83,71.08,71.08c0,14.34-4.26,27.68-11.56,38.84L377.31,394.56z"/>
  <path fill="#FFFFFF" d="M257.79,560.76
    c-25.91,34.82-67.38,57.38-114.13,57.38C65.15,618.15,1.5,554.5,1.5,475.98c0-33.35,11.49-64.02,30.72-88.27l-5.79,8.06l5.79-8.06
    l110.37-153.5c-7.36,11.19-11.65,24.58-11.65,38.98c0,27.25,15.34,50.91,37.85,62.84c8.44,4.47,17.9,7.29,27.93,8.03
    c1.75,0.13,3.52,0.22,5.3,0.22c24.09,0,45.39-11.99,58.25-30.33l80.45-111.88l0.52-0.73c12.97-17.29,33.63-28.48,56.9-28.48
    c39.26,0,71.08,31.83,71.08,71.08c0,14.34-4.26,27.68-11.56,38.84L257.79,560.76z"/>
</g>
</svg>
