<?xml version="1.0" encoding="UTF-8" standalone="no"?>
<svg xmlns="http://www.w3.org/2000/svg" xmlns:xlink="http://www.w3.org/1999/xlink" xmlns:serif="http://www.serif.com/" width="100%" height="100%" viewBox="0 0 101 85" version="1.1" xml:space="preserve" style="fill-rule:evenodd;clip-rule:evenodd;stroke-linejoin:round;stroke-miterlimit:2;">
    <g transform="matrix(1,0,0,1,-185.474,-246.035)">
        <path d="M281.7,311.53C282.86,311.75 283.99,310.99 284.21,309.82L286.02,300.35C286.13,299.79 286.01,299.21 285.69,298.74C285.37,298.27 284.88,297.95 284.32,297.84L280.66,297.14C280.49,295.14 280.08,293.17 279.44,291.26L282.52,289.16C283.5,288.49 283.75,287.16 283.09,286.18L277.67,278.2C277.35,277.73 276.86,277.4 276.3,277.3C275.74,277.19 275.16,277.31 274.69,277.63L271.61,279.72C270.07,278.42 268.39,277.31 266.59,276.42L267.29,272.76C267.51,271.6 266.75,270.47 265.59,270.25L256.11,268.44C255.55,268.33 254.97,268.45 254.5,268.77C254.03,269.09 253.71,269.58 253.6,270.14L252.9,273.8C250.9,273.97 248.93,274.38 247.02,275.02L244.92,271.94C244.6,271.47 244.11,271.14 243.55,271.04C242.99,270.93 242.41,271.05 241.94,271.37L233.96,276.79C233.49,277.11 233.17,277.6 233.06,278.16C232.95,278.72 233.07,279.3 233.39,279.77L235.49,282.85C234.19,284.39 233.08,286.07 232.19,287.87L228.53,287.17C227.97,287.06 227.39,287.18 226.92,287.5C226.45,287.82 226.13,288.31 226.02,288.87L224.21,298.35C223.99,299.51 224.75,300.64 225.92,300.86L229.58,301.56C229.75,303.56 230.16,305.53 230.8,307.44L227.72,309.53C227.25,309.85 226.93,310.34 226.82,310.9C226.71,311.46 226.83,312.04 227.15,312.51L232.57,320.49C232.89,320.96 233.38,321.28 233.94,321.39C234.5,321.5 235.08,321.38 235.55,321.06L238.63,318.96C240.17,320.26 241.85,321.37 243.65,322.26L242.95,325.92C242.73,327.08 243.49,328.21 244.65,328.43L254.13,330.24C254.27,330.27 254.4,330.28 254.53,330.28C255.54,330.28 256.44,329.56 256.63,328.53L257.33,324.87C259.33,324.7 261.3,324.29 263.21,323.65L265.31,326.74C265.63,327.21 266.12,327.53 266.68,327.64C267.24,327.75 267.82,327.63 268.29,327.31L276.27,321.89C277.25,321.22 277.5,319.89 276.84,318.91L274.74,315.83C276.04,314.29 277.15,312.61 278.04,310.81L281.7,311.51L281.7,311.53ZM274.82,307.59C273.8,310.04 272.34,312.26 270.48,314.18C269.77,314.91 269.68,316.04 270.25,316.88L272.09,319.58L267.66,322.59L265.82,319.89C265.25,319.05 264.17,318.72 263.23,319.11C260.76,320.13 258.16,320.67 255.51,320.71C254.49,320.73 253.63,321.46 253.44,322.45L252.83,325.65L247.57,324.65L248.18,321.45C248.37,320.45 247.84,319.46 246.9,319.07C244.45,318.05 242.23,316.59 240.31,314.73C239.58,314.02 238.45,313.93 237.61,314.5L234.91,316.34L231.9,311.91L234.6,310.07C235.44,309.5 235.77,308.42 235.38,307.48C234.36,305.01 233.82,302.41 233.77,299.76C233.75,298.74 233.03,297.88 232.03,297.69L228.83,297.08L229.83,291.82L233.03,292.43C234.03,292.62 235.02,292.08 235.41,291.15C236.43,288.7 237.89,286.48 239.75,284.56C240.46,283.83 240.55,282.7 239.98,281.86L238.14,279.16L242.57,276.15L244.41,278.85C244.98,279.69 246.06,280.01 247,279.63C249.47,278.61 252.07,278.07 254.72,278.03C255.74,278.01 256.6,277.29 256.79,276.29L257.4,273.09L262.66,274.09L262.05,277.29C261.86,278.29 262.39,279.28 263.33,279.67C265.78,280.69 268,282.15 269.92,284C270.65,284.71 271.78,284.8 272.62,284.23L275.32,282.39L278.33,286.82L275.63,288.66C274.79,289.23 274.47,290.31 274.85,291.25C275.87,293.72 276.41,296.32 276.46,298.97C276.48,299.99 277.21,300.85 278.2,301.04L281.4,301.65L280.4,306.91L277.2,306.3C276.2,306.11 275.21,306.65 274.82,307.58L274.82,307.59Z" style="fill:rgb(18,48,255);fill-rule:nonzero;"></path>
        <path d="M258,284.22C253.96,283.45 249.85,284.3 246.45,286.61C243.05,288.92 240.74,292.43 239.97,296.47C239.2,300.52 240.05,304.62 242.36,308.02C244.67,311.42 248.18,313.73 252.22,314.5C253.19,314.69 254.16,314.78 255.12,314.78C262.37,314.78 268.85,309.63 270.26,302.25C271.85,293.9 266.36,285.81 258.01,284.22L258,284.22ZM266.04,301.45C265.48,304.37 263.82,306.9 261.37,308.57C258.91,310.24 255.95,310.85 253.03,310.3C250.11,309.74 247.58,308.08 245.91,305.63C244.24,303.17 243.63,300.21 244.18,297.29C244.74,294.37 246.4,291.84 248.86,290.17C250.73,288.9 252.88,288.24 255.09,288.24C255.79,288.24 256.5,288.31 257.2,288.44C263.23,289.59 267.19,295.43 266.04,301.45Z" style="fill:rgb(18,48,255);fill-rule:nonzero;"></path>
        <path d="M186.5,276.16C186.63,277.04 187.44,277.66 188.33,277.53L191.1,277.13C191.71,278.51 192.48,279.81 193.41,281.01L191.73,283.25C191.47,283.59 191.36,284.02 191.42,284.44C191.48,284.86 191.71,285.24 192.05,285.5L197.85,289.84C198.56,290.38 199.57,290.23 200.11,289.52L201.79,287.28C203.2,287.83 204.67,288.2 206.16,288.4L206.56,291.17C206.62,291.59 206.85,291.98 207.19,292.23C207.47,292.44 207.81,292.55 208.16,292.55C208.24,292.55 208.31,292.55 208.39,292.53L215.57,291.5C216.45,291.37 217.06,290.56 216.94,289.68L216.54,286.91C217.92,286.3 219.22,285.53 220.42,284.6L222.66,286.28C223.37,286.81 224.38,286.67 224.92,285.95L229.27,280.15C229.8,279.44 229.66,278.43 228.95,277.89L226.71,276.21C227.26,274.8 227.63,273.33 227.83,271.84L230.6,271.44C231.02,271.38 231.4,271.15 231.66,270.81C231.92,270.47 232.03,270.04 231.97,269.62L230.94,262.44C230.81,261.56 230,260.95 229.11,261.07L226.34,261.47C225.73,260.09 224.96,258.79 224.03,257.59L225.71,255.35C225.97,255.01 226.08,254.58 226.02,254.16C225.96,253.74 225.73,253.35 225.39,253.1L219.59,248.75C219.25,248.49 218.82,248.38 218.4,248.44C217.98,248.5 217.6,248.73 217.34,249.07L215.66,251.31C214.25,250.76 212.78,250.39 211.28,250.19L210.88,247.42C210.75,246.54 209.94,245.93 209.06,246.05L201.88,247.08C201.46,247.14 201.08,247.37 200.82,247.71C200.56,248.05 200.45,248.48 200.51,248.91L200.91,251.68C199.53,252.29 198.23,253.06 197.03,253.99L194.79,252.31C194.45,252.05 194.02,251.94 193.6,252C193.18,252.06 192.8,252.29 192.54,252.63L188.19,258.43C187.93,258.77 187.82,259.2 187.88,259.62C187.94,260.05 188.17,260.43 188.51,260.68L190.75,262.36C190.2,263.78 189.83,265.24 189.63,266.74L186.86,267.14C186.44,267.2 186.06,267.43 185.8,267.77C185.54,268.11 185.43,268.54 185.49,268.96L186.52,276.14L186.5,276.16ZM191.32,269.78C192.08,269.67 192.65,269.05 192.7,268.29C192.83,266.3 193.32,264.37 194.17,262.55C194.49,261.86 194.29,261.04 193.68,260.58L191.71,259.11L194.12,255.89L196.09,257.36C196.7,257.82 197.55,257.79 198.12,257.28C199.63,255.95 201.34,254.93 203.22,254.25C203.94,253.99 204.37,253.26 204.27,252.51L203.92,250.08L207.9,249.51L208.25,251.94C208.36,252.7 208.98,253.27 209.74,253.32C211.73,253.45 213.66,253.94 215.48,254.79C216.17,255.11 217,254.91 217.45,254.3L218.92,252.33L222.14,254.74L220.67,256.71C220.21,257.32 220.25,258.17 220.75,258.74C222.08,260.25 223.1,261.96 223.78,263.84C224.04,264.56 224.77,264.99 225.53,264.88L227.96,264.53L228.53,268.51L226.1,268.86C225.34,268.97 224.77,269.59 224.72,270.36C224.59,272.35 224.1,274.28 223.25,276.1C222.93,276.79 223.13,277.61 223.74,278.07L225.71,279.54L223.3,282.76L221.34,281.29C220.73,280.83 219.88,280.87 219.31,281.37C217.8,282.7 216.09,283.72 214.21,284.4C213.49,284.66 213.06,285.39 213.16,286.14L213.51,288.57L209.52,289.14L209.17,286.71C209.06,285.95 208.44,285.38 207.68,285.33C205.69,285.2 203.76,284.71 201.94,283.86C201.72,283.76 201.49,283.71 201.26,283.71C200.76,283.71 200.28,283.94 199.97,284.36L198.5,286.33L195.28,283.92L196.75,281.95C197.21,281.34 197.17,280.49 196.67,279.92C195.34,278.41 194.32,276.7 193.64,274.82C193.38,274.1 192.65,273.66 191.89,273.77L189.46,274.12L188.89,270.14L191.32,269.79L191.32,269.78Z" style="fill:rgb(18,48,255);fill-rule:nonzero;"></path>
        <path d="M208.7,280.9C209.25,280.9 209.8,280.86 210.35,280.78C216.67,279.87 221.08,273.99 220.17,267.66C219.26,261.34 213.38,256.93 207.06,257.84C200.74,258.75 196.33,264.63 197.24,270.96C198.07,276.73 203.03,280.9 208.7,280.9ZM207.52,261.04C207.92,260.98 208.32,260.95 208.71,260.95C212.8,260.95 216.38,263.96 216.98,268.12C217.64,272.69 214.46,276.93 209.89,277.59C205.32,278.24 201.08,275.06 200.43,270.5C199.77,265.94 202.95,261.69 207.52,261.03L207.52,261.04Z" style="fill:rgb(18,48,255);fill-rule:nonzero;"></path>
    </g>
</svg>
