<?xml version="1.0" encoding="UTF-8" standalone="no"?>
<svg xmlns="http://www.w3.org/2000/svg" xmlns:xlink="http://www.w3.org/1999/xlink" xmlns:serif="http://www.serif.com/" width="100%" height="100%" viewBox="0 0 92 99" version="1.1" xml:space="preserve" style="fill-rule:evenodd;clip-rule:evenodd;stroke-linejoin:round;stroke-miterlimit:2;">
    <g transform="matrix(1,0,0,1,-4.19,-531.923)">
        <path d="M31.5,617.38C29.09,616.33 27.15,615.24 25.96,614.51C25.31,614.11 24.81,613.78 24.48,613.55C24.32,613.44 24.19,613.35 24.07,613.26L24,613.21C22.95,612.42 21.48,612.61 20.66,613.64C19.85,614.66 20.01,616.16 21.01,616.99C30.01,624.47 38.24,628.68 46.15,629.87C47.77,630.11 49.38,630.23 50.99,630.23C53.27,630.23 55.56,629.99 57.9,629.5C61.01,628.85 64.18,627.77 67.55,626.2L69.45,628.95C69.96,629.69 70.82,630.08 71.71,629.97C72.6,629.87 73.35,629.29 73.68,628.46L78.91,615.17C79.18,614.47 79.12,613.68 78.74,613.05C78.36,612.41 77.68,611.98 76.94,611.89L62.68,610.28C61.76,610.17 60.88,610.59 60.38,611.37C59.89,612.13 59.87,613.13 60.33,613.91L61.82,616.4C57.96,618.72 53.82,620.11 49.47,620.54C42.3,621.25 35.75,619.21 31.52,617.38L31.5,617.38ZM64.84,618.24C65.55,617.77 65.76,616.83 65.32,616.1L63.84,613.62L75.57,614.94L71.23,625.96L69.38,623.28C68.93,622.63 68.08,622.41 67.37,622.76C63.78,624.53 60.46,625.72 57.24,626.39C53.63,627.15 50.15,627.26 46.62,626.73C41.91,626.02 37.04,624.12 31.89,620.97C36.44,622.74 42.81,624.39 49.77,623.7C55.12,623.17 60.19,621.33 64.84,618.24Z" style="fill:rgb(18,48,255);fill-rule:nonzero;"></path>
        <path d="M73.12,547.65C73.77,548.05 74.27,548.38 74.6,548.61C74.76,548.72 74.89,548.81 74.99,548.88L75.07,548.94C76.12,549.73 77.59,549.55 78.41,548.51C79.23,547.48 79.08,546.01 78.06,545.16C69.06,537.68 60.83,533.47 52.92,532.29C49.01,531.7 45.17,531.82 41.18,532.66C38.07,533.31 34.9,534.39 31.53,535.96L29.63,533.21C29.12,532.48 28.25,532.08 27.37,532.19C26.48,532.29 25.73,532.87 25.4,533.7L20.17,546.99C19.9,547.69 19.96,548.48 20.34,549.11C20.72,549.75 21.4,550.19 22.14,550.27L36.41,551.88C36.5,551.89 36.59,551.9 36.68,551.9C37.49,551.9 38.25,551.49 38.7,550.8C39.19,550.04 39.21,549.04 38.75,548.26L37.26,545.77C41.12,543.45 45.26,542.06 49.61,541.63C56.78,540.92 63.33,542.96 67.56,544.79C69.98,545.83 71.91,546.92 73.11,547.66L73.12,547.65ZM49.3,538.46C43.95,538.99 38.87,540.83 34.22,543.92C33.52,544.39 33.3,545.33 33.74,546.06L35.22,548.55L23.49,547.23L27.83,536.21L29.68,538.89C30.13,539.54 30.98,539.76 31.69,539.41C35.28,537.64 38.6,536.45 41.82,535.78C45.44,535.02 48.91,534.91 52.44,535.44C57.15,536.15 62.02,538.05 67.18,541.2C62.63,539.43 56.25,537.78 49.3,538.47L49.3,538.46Z" style="fill:rgb(18,48,255);fill-rule:nonzero;"></path>
        <path d="M20.94,585.11C24.46,585.11 27.78,583.74 30.28,581.24C32.78,578.74 34.15,575.42 34.15,571.9C34.15,564.62 28.22,558.69 20.94,558.69C17.41,558.69 14.1,560.06 11.6,562.56C9.1,565.06 7.73,568.38 7.73,571.9C7.73,579.18 13.66,585.11 20.94,585.11ZM14.07,565.04C15.91,563.2 18.35,562.19 20.94,562.19C26.29,562.19 30.65,566.55 30.66,571.9C30.66,574.49 29.65,576.93 27.81,578.77C25.97,580.61 23.54,581.62 20.95,581.62C15.6,581.62 11.24,577.26 11.23,571.91C11.23,569.32 12.24,566.88 14.08,565.04L14.07,565.04Z" style="fill:rgb(18,48,255);fill-rule:nonzero;"></path>
        <path d="M37.67,603.64C37.68,603.17 37.97,592.01 30.95,585.59C30.32,585.02 29.38,584.98 28.7,585.49C28.62,585.55 20.86,591.38 13.65,585.51C12.99,584.97 12.04,584.99 11.4,585.54C11.11,585.79 4.36,591.79 4.19,603.57C4.19,604.04 4.36,604.49 4.69,604.82C5.02,605.15 5.47,605.34 5.94,605.34L35.92,605.34C36.86,605.34 37.64,604.59 37.67,603.64ZM7.78,601.84C8.32,595.17 11.21,590.97 12.76,589.17C19.07,593.36 25.83,591.37 29.55,589.13C33.11,593.15 33.94,598.98 34.13,601.83L7.78,601.83L7.78,601.84Z" style="fill:rgb(18,48,255);fill-rule:nonzero;"></path>
        <path d="M70.06,562.56C67.56,565.06 66.19,568.38 66.19,571.9C66.19,579.18 72.12,585.11 79.4,585.11C82.93,585.11 86.24,583.74 88.74,581.24C91.24,578.74 92.62,575.42 92.61,571.9C92.61,564.62 86.68,558.69 79.4,558.69C75.87,558.69 72.56,560.06 70.06,562.56ZM89.12,571.9C89.12,574.49 88.11,576.93 86.27,578.77C84.43,580.61 82,581.62 79.41,581.62C74.05,581.62 69.69,577.26 69.69,571.91C69.69,569.32 70.7,566.88 72.54,565.04C74.38,563.2 76.82,562.19 79.41,562.19C84.76,562.19 89.12,566.55 89.13,571.9L89.12,571.9Z" style="fill:rgb(18,48,255);fill-rule:nonzero;"></path>
        <path d="M89.42,585.59C88.8,585.02 87.85,584.98 87.18,585.49C87.1,585.55 79.34,591.38 72.13,585.51C71.47,584.97 70.52,584.99 69.88,585.54C69.59,585.79 62.84,591.79 62.67,603.57C62.67,604.04 62.84,604.49 63.17,604.82C63.5,605.15 63.95,605.34 64.41,605.34L94.39,605.34C95.33,605.34 96.11,604.59 96.14,603.64C96.16,603.17 96.44,592.01 89.42,585.59ZM66.24,601.84C66.77,595.17 69.67,590.97 71.21,589.17C77.52,593.36 84.28,591.37 88.01,589.13C91.57,593.15 92.4,598.98 92.59,601.83L66.24,601.83L66.24,601.84Z" style="fill:rgb(18,48,255);fill-rule:nonzero;"></path>
    </g>
</svg>
