<?xml version="1.0" encoding="UTF-8" standalone="no"?>
<svg xmlns="http://www.w3.org/2000/svg" xmlns:xlink="http://www.w3.org/1999/xlink" xmlns:serif="http://www.serif.com/" width="100%" height="100%" viewBox="0 0 102 84" version="1.1" xml:space="preserve" style="fill-rule:evenodd;clip-rule:evenodd;stroke-linejoin:round;stroke-miterlimit:2;">
    <g transform="matrix(1,0,0,1,-184.6,-1)">
        <path d="M252.73,9.94C252.3,9.88 251.86,9.84 251.43,9.81C248.35,8.56 242.86,7.68 236.41,12.64L236.26,12.77L234.15,14.89C226.19,9.49 219.88,12.82 218.1,13.99L210.17,6.06L185.18,31.05L194.65,40.52C194.72,44.77 196.23,49.12 199.17,53.52C200.38,55.33 201.79,57 203.32,58.55C205.27,60.53 207.25,62.48 209.22,64.45C207.09,67.56 208,70.13 210.23,72.44C212.54,74.84 214.66,75.12 217.78,74.22C217.81,74.22 217.84,74.22 217.85,74.25C220.09,77.61 222.16,79.23 224.39,79.41C225.32,80.31 226.23,81.22 227.16,82.12C229.92,84.78 234.12,85.38 237.45,83.47C238.89,82.65 239.13,81.97 239.87,80.8C245.49,85.52 249.25,85.61 253.67,78.98C253.69,78.96 253.72,78.95 253.75,78.95C256.87,79.86 259,79.57 261.3,77.17C263.65,74.72 264.54,71.99 261.92,68.65C261.9,68.62 261.22,67.74 261.26,67.74C263.13,67.8 264.61,66.61 265.43,65.55C267.61,62.74 267.47,59.78 265.14,56.87C266.16,55.84 267.19,54.83 268.21,53.8C269.74,52.25 271.15,50.58 272.36,48.77C275.29,44.37 276.8,40.02 276.88,35.77L286.35,26.3L261.36,1.31L252.73,9.94ZM204.83,54.92C201.96,51.88 199.8,48.53 198.86,44.73C198.65,43.88 198.5,43.01 198.42,42.12C198.35,41.39 198.33,40.64 198.35,39.88L188.74,30.27L209.39,9.62L216.45,16.68L216.42,16.75L219.62,17.02L219.83,16.5C221.09,15.64 226.33,12.74 233.32,18.06L242.57,27.35C243.03,27.82 243.29,28.44 243.29,29.1C243.29,29.77 243.03,30.39 242.57,30.85L241.96,31.46C240.99,32.42 239.42,32.42 238.46,31.46L229,21.95L226.7,23.56L229.26,26.56L230.37,27.67C229.28,28.76 228.19,29.84 227.11,30.93C226.84,31.2 226.69,31.49 226.61,31.79C226.56,31.85 226.5,31.9 226.45,31.96C220.09,38.33 213.71,44.68 207.37,51.06C206.1,52.34 205.26,53.63 204.86,54.91L204.83,54.92ZM235.5,80.69C234.77,81.39 234.02,81.81 232.92,81.72C231.41,81.6 230.36,80.45 229.63,79.73C229.18,79.29 228.74,78.84 228.29,78.4C229.34,77.84 230.45,77.06 231.64,76.06C232.38,77.23 232.62,77.91 234.06,78.73C234.71,79.1 235.38,79.37 236.08,79.56C235.96,80.03 235.77,80.44 235.5,80.69ZM249.14,79.41C247.72,81.08 246.1,81.22 244.02,79.3C243.7,79 243.38,78.7 243.06,78.4C243.51,78.1 243.95,77.76 244.35,77.38C245.54,76.24 246.71,75.07 247.89,73.92C248.02,74.05 248.14,74.17 248.27,74.3C250.22,76.25 250.48,77.83 249.13,79.41L249.14,79.41ZM259.02,74.24C257.58,76.2 255.39,76.24 253.43,74.29C252.45,73.32 251.48,72.34 250.51,71.37C252.12,69.8 253.73,68.24 255.33,66.66C256.23,67.57 257.14,68.47 258.05,69.38C259.79,71.13 260.09,72.79 259.02,74.25L259.02,74.24ZM263.02,62.66C262.29,64.48 260.12,65.34 258.41,64.4C258.24,64.31 258.08,64.2 257.92,64.09C259.47,62.55 261,61 262.54,59.46C263.21,60.34 263.55,61.33 263.02,62.66ZM282.77,25.54L273.16,35.15C273.18,35.91 273.16,36.66 273.09,37.39C273.01,38.28 272.86,39.15 272.65,40C271.7,43.82 269.53,47.19 266.64,50.23C262.72,54.36 258.6,58.31 254.58,62.34C250.35,66.57 246.14,70.81 241.88,75.01C241.15,75.73 240.1,76.88 238.59,77C237.49,77.09 236.74,76.66 236.01,75.96C235.35,75.34 235.14,73.77 235.4,72.79C235.67,71.73 236.62,70.77 237.44,69.93C239.36,67.96 241.33,66.02 243.27,64.07C244.22,63.12 245.16,62.16 246.1,61.2C247.09,60.17 250,58.01 248.37,56.48C246.87,55.08 244.73,57.78 243.83,58.69C242.88,59.64 241.93,60.59 240.97,61.53C236.5,65.89 232.08,70.33 227.5,74.58C225.43,76.5 223.8,76.36 222.39,74.69C221.04,73.11 221.3,71.53 223.25,69.58C228.32,64.5 233.39,59.43 238.47,54.36C239.18,53.65 239.8,53.18 239.92,52.1C240.02,51.29 239.72,50.58 238.9,50.46C237.51,50.25 236.9,50.78 236,51.68C230.03,57.65 224.07,63.62 218.09,69.58C216.13,71.53 213.94,71.49 212.5,69.53C211.43,68.07 211.73,66.41 213.47,64.66C219.53,58.58 225.59,52.51 231.68,46.46C232.67,45.47 233.45,44.37 232.23,43.23C231.07,42.14 230.07,43.1 229.18,43.99C224.51,48.67 219.84,53.35 215.15,58.01C214.53,58.63 213.87,59.27 213.11,59.68C211.39,60.62 209.22,59.77 208.5,57.94C207.75,56.07 208.71,54.89 209.9,53.71C217.66,45.98 225.42,38.25 233.11,30.45L236.29,33.64C237.37,34.73 238.8,35.27 240.22,35.27C241.64,35.27 243.05,34.73 244.13,33.66L244.74,33.05C245.79,32.01 246.37,30.62 246.37,29.13C246.37,27.74 245.85,26.43 244.93,25.41L237.88,18.29L236.49,16.9L238.37,15.01C241.28,12.79 243.88,12.01 246.02,11.91C249.94,11.55 253.41,13.61 253.41,13.61L262.11,4.91L282.76,25.56L282.77,25.54Z" style="fill:rgb(18,48,255);fill-rule:nonzero;"></path>
    </g>
</svg>
