<?xml version="1.0" encoding="UTF-8" standalone="no"?>
<svg xmlns="http://www.w3.org/2000/svg" xmlns:xlink="http://www.w3.org/1999/xlink" xmlns:serif="http://www.serif.com/" width="100%" height="100%" viewBox="0 0 102 94" version="1.1" xml:space="preserve" style="fill-rule:evenodd;clip-rule:evenodd;stroke-linejoin:round;stroke-miterlimit:2;">
    <g transform="matrix(1,0,0,1,0.995,0)">
        <path d="M62.91,27.18C55.04,25.15 44.6,27.6 38.47,35.87C31.91,27.09 21.41,25.06 13.85,27.07C5.31,29.36 0,36.47 0,45.63C0,66.59 35.85,91.96 37.38,93.02C37.71,93.25 38.1,93.37 38.49,93.37C38.88,93.37 39.27,93.25 39.61,93.02C41.14,91.95 76.99,66.58 76.99,45.63C76.99,36.48 71.6,29.41 62.91,27.17L62.91,27.18ZM55.45,74.68C48.37,81.61 41.19,87.06 38.5,89.04C35.81,87.06 28.67,81.64 21.58,74.72C10,63.41 3.89,53.35 3.89,45.63C3.89,37.91 7.99,32.66 14.86,30.82C16.31,30.43 17.88,30.23 19.52,30.23C25.65,30.23 32.64,33.14 36.82,40.4C37.17,41.01 37.81,41.38 38.52,41.37C39.22,41.37 39.87,40.98 40.2,40.37C44.97,31.73 54.75,29.09 61.95,30.94C68.94,32.74 73.11,38.23 73.11,45.63C73.11,53.03 67.01,63.38 55.46,74.68L55.45,74.68Z" style="fill:rgb(18,48,255);fill-rule:nonzero;"></path>
        <path d="M61.71,3.25C61.71,5.04 63.17,6.5 64.96,6.5C80.88,6.5 93.84,19.46 93.84,35.38C93.84,37.17 95.3,38.63 97.09,38.63C98.88,38.63 100.34,37.17 100.34,35.38C100.34,15.87 84.47,0 64.96,0C63.17,0 61.71,1.46 61.71,3.25ZM98.53,35.38C98.53,36.17 97.89,36.81 97.09,36.81C96.29,36.81 95.65,36.17 95.65,35.38C95.65,18.45 81.88,4.69 64.96,4.69C64.17,4.69 63.52,4.05 63.52,3.26C63.52,2.47 64.16,1.82 64.96,1.82C83.47,1.82 98.53,16.88 98.53,35.39L98.53,35.38Z" style="fill:rgb(18,48,255);fill-rule:nonzero;"></path>
        <path d="M82.38,35.76C82.38,37.55 83.84,39.01 85.63,39.01C87.42,39.01 88.88,37.55 88.88,35.76C88.88,22.37 77.98,11.47 64.59,11.47C62.8,11.47 61.34,12.93 61.34,14.72C61.34,16.51 62.8,17.97 64.59,17.97C74.4,17.97 82.38,25.95 82.38,35.76ZM63.15,14.71C63.15,13.92 63.79,13.28 64.59,13.28C76.98,13.28 87.07,23.36 87.07,35.76C87.07,36.55 86.43,37.2 85.63,37.2C84.83,37.2 84.19,36.55 84.19,35.76C84.19,24.95 75.39,16.15 64.59,16.15C63.8,16.15 63.15,15.51 63.15,14.71Z" style="fill:rgb(18,48,255);fill-rule:nonzero;"></path>
    </g>
</svg>
