<?xml version="1.0" encoding="UTF-8" standalone="no"?>
<svg xmlns="http://www.w3.org/2000/svg" xmlns:xlink="http://www.w3.org/1999/xlink" xmlns:serif="http://www.serif.com/" width="100%" height="100%" viewBox="0 0 81 82" version="1.1" xml:space="preserve" style="fill-rule:evenodd;clip-rule:evenodd;stroke-linejoin:round;stroke-miterlimit:2;">
    <g transform="matrix(1,0,0,1,-9.86217,-264.041)">
        <path d="M80.43,300.66C80.56,300.5 80.66,300.32 80.72,300.13L89.96,272.32C90.12,271.96 90.24,271.59 90.32,271.2C90.32,271.17 90.34,271.13 90.34,271.1C90.73,269.15 90.13,267.16 88.73,265.76C87.29,264.32 85.26,263.74 83.27,264.19C83.21,264.19 83.14,264.21 83.08,264.23C82.82,264.3 82.57,264.39 82.34,264.48L55.37,273.39C53.99,273.71 52.9,274.28 52.03,275.15L32.44,294.79L16.46,292.24C16.34,292.22 16.23,292.22 16.12,292.24C14.41,291.98 12.7,292.54 11.46,293.78C9.36,295.89 9.33,299.29 11.37,301.45C11.41,301.5 11.45,301.55 11.49,301.59L18.57,308.69L16.63,310.64C13.92,313.35 13.93,317.77 16.63,320.49L18.93,322.8L18.69,323.26C18.35,323.92 18.48,324.72 19,325.24L29.12,335.38C29.64,335.9 30.44,336.03 31.09,335.69L31.55,335.45L33.94,337.85C35.25,339.17 37,339.89 38.85,339.89C40.7,339.89 42.45,339.16 43.76,337.85L45.3,336.31L52.47,343.5C52.53,343.56 52.6,343.61 52.67,343.66C52.73,343.73 52.79,343.8 52.85,343.86C53.88,344.89 55.25,345.46 56.71,345.46C58.17,345.46 59.54,344.89 60.57,343.85C62.01,342.41 62.52,340.3 61.93,338.37C61.93,338.3 61.93,338.23 61.92,338.16L59.39,322.17L79.15,302.36C79.64,301.87 80.04,301.31 80.38,300.65L80.43,300.66ZM13.29,300.16C13.25,300.1 13.21,300.04 13.16,299.99C13.12,299.95 13.07,299.9 13.02,299.86C11.83,298.6 11.86,296.61 13.09,295.38C13.87,294.6 14.98,294.28 16.05,294.53C16.2,294.56 16.35,294.57 16.5,294.54L30.5,296.77L20.21,307.08L13.3,300.16L13.29,300.16ZM59.66,338.1C59.61,338.32 59.63,338.55 59.72,338.77C60.21,339.98 59.93,341.34 59.02,342.25C58.41,342.86 57.61,343.19 56.75,343.19C55.9,343.19 55.09,342.86 54.49,342.26C54.44,342.21 54.41,342.16 54.37,342.11L54.25,341.95C54.14,341.8 53.99,341.69 53.83,341.62L47.08,334.85L57.5,324.4L59.66,338.1ZM77.52,298.86C77.32,299.31 77.09,299.67 76.8,299.96L41.4,335.44C40.73,336.11 39.84,336.48 38.89,336.48C38.53,336.48 38.19,336.43 37.86,336.33C37.53,336.23 37.21,336.08 36.92,335.88C36.73,335.75 36.55,335.6 36.38,335.43L33.11,332.16C32.78,331.83 32.35,331.66 31.91,331.66C31.65,331.66 31.38,331.72 31.14,331.85L30.68,332.09L22.31,323.7L22.55,323.24C22.89,322.58 22.76,321.78 22.24,321.26L19.06,318.08C17.67,316.69 17.67,314.43 19.06,313.04L54.46,277.56C54.88,277.14 55.44,276.87 56.22,276.69C56.28,276.68 56.33,276.66 56.39,276.64L83.49,267.69C83.49,267.69 83.57,267.66 83.61,267.64C83.71,267.6 83.81,267.56 83.92,267.53C83.95,267.53 83.98,267.52 84.01,267.51C84.87,267.3 85.74,267.55 86.35,268.16C86.93,268.74 87.18,269.56 87.04,270.37C87.04,270.39 87.04,270.41 87.03,270.43C86.99,270.63 86.93,270.81 86.85,270.98C86.82,271.04 86.8,271.09 86.78,271.15L77.64,298.64C77.6,298.71 77.56,298.78 77.53,298.85L77.52,298.86Z" style="fill:rgb(18,48,255);fill-rule:nonzero;"></path>
        <path d="M45.65,305.21C44.48,304.04 42.93,303.4 41.28,303.4C39.63,303.4 38.08,304.04 36.92,305.21L29.36,312.79C26.95,315.2 26.95,319.13 29.36,321.54L32.93,325.12C34.1,326.29 35.64,326.93 37.29,326.93C38.94,326.93 40.49,326.29 41.65,325.12L49.21,317.54C50.38,316.37 51.02,314.82 51.02,313.17C51.02,311.52 50.38,309.96 49.21,308.79L45.64,305.21L45.65,305.21ZM46.82,315.13L39.26,322.71C38.74,323.24 38.04,323.52 37.3,323.52C36.56,323.52 35.86,323.23 35.34,322.71L31.77,319.13C30.69,318.04 30.68,316.28 31.77,315.19L39.33,307.61C39.85,307.09 40.55,306.8 41.29,306.8C42.03,306.8 42.73,307.09 43.26,307.62L46.83,311.2C47.35,311.73 47.64,312.43 47.64,313.17C47.64,313.91 47.35,314.61 46.83,315.14L46.82,315.13Z" style="fill:rgb(18,48,255);fill-rule:nonzero;"></path>
        <path d="M64.28,286.09C62.88,285.34 61.32,284.94 59.69,284.94C57.09,284.94 54.64,285.96 52.8,287.8C50.96,289.65 49.94,292.1 49.94,294.71C49.94,297.32 50.96,299.78 52.8,301.62C54.64,303.47 57.09,304.48 59.69,304.48C62.29,304.48 64.74,303.46 66.59,301.61C68.43,299.76 69.44,297.31 69.45,294.7C69.45,292.09 68.44,289.64 66.6,287.79C65.91,287.1 65.13,286.52 64.29,286.07L64.28,286.09ZM64.18,299.21C62.98,300.42 61.38,301.08 59.68,301.08C57.98,301.08 56.39,300.42 55.19,299.22C53.99,298.01 53.33,296.42 53.33,294.72C53.33,293.02 53.99,291.42 55.2,290.21C56.4,289.01 57.99,288.34 59.69,288.34C61.39,288.34 62.98,289.01 64.18,290.21C65.38,291.41 66.04,293.01 66.04,294.71C66.04,296.41 65.38,298.01 64.18,299.21Z" style="fill:rgb(18,48,255);fill-rule:nonzero;"></path>
    </g>
</svg>
