<?xml version="1.0" encoding="UTF-8" standalone="no"?>
<svg xmlns="http://www.w3.org/2000/svg" xmlns:xlink="http://www.w3.org/1999/xlink" xmlns:serif="http://www.serif.com/" width="100%" height="100%" viewBox="0 0 79 77" version="1.1" xml:space="preserve" style="fill-rule:evenodd;clip-rule:evenodd;stroke-linejoin:round;stroke-miterlimit:2;">
    <g transform="matrix(1,0,0,1,-196.72,-544.19)">
        <path d="M262.03,545.3L232.21,545.3C227.62,545.3 223.59,548.06 221.34,552.19C219.15,547.44 214.79,544.19 209.78,544.19C202.58,544.19 196.72,550.88 196.72,559.1L196.72,605.32C196.72,613.54 202.58,620.23 209.78,620.23C214.52,620.23 218.67,617.32 220.96,612.99C223.12,617.52 227.36,620.61 232.22,620.61L262.03,620.61C269.08,620.61 274.82,614.12 274.82,606.15L274.82,559.76C274.82,551.79 269.08,545.3 262.03,545.3ZM219.34,605.32C219.34,611.61 215.05,616.73 209.77,616.73C204.49,616.73 200.2,611.61 200.2,605.32L200.2,559.1C200.2,552.81 204.49,547.69 209.77,547.69C215.05,547.69 219.34,552.81 219.34,559.1L219.34,605.32ZM271.31,606.15C271.31,612.19 267.14,617.11 262.02,617.11L232.21,617.11C227.09,617.11 222.92,612.19 222.92,606.15L222.92,559.76C222.92,553.72 227.09,548.8 232.21,548.8L262.02,548.8C267.14,548.8 271.31,553.72 271.31,559.76L271.31,606.15Z" style="fill:rgb(18,48,255);fill-rule:nonzero;"></path>
        <path d="M232.43,567.89L261.79,567.89C263.81,567.89 265.45,566.03 265.45,563.75L265.45,560.98C265.45,558.7 263.81,556.84 261.79,556.84L232.43,556.84C230.41,556.84 228.77,558.7 228.77,560.98L228.77,563.75C228.77,566.03 230.41,567.89 232.43,567.89ZM230.4,560.98C230.4,559.6 231.31,558.48 232.43,558.48L261.79,558.48C262.91,558.48 263.82,559.6 263.82,560.98L263.82,563.75C263.82,565.13 262.91,566.25 261.79,566.25L232.43,566.25C231.31,566.25 230.4,565.13 230.4,563.75L230.4,560.98Z" style="fill:rgb(18,48,255);fill-rule:nonzero;"></path>
        <path d="M236.25,570.75L232.94,570.75C230.66,570.75 228.81,572.6 228.81,574.89L228.81,578.76C228.81,581.04 230.66,582.9 232.94,582.9L236.25,582.9C238.53,582.9 240.38,581.04 240.38,578.76L240.38,574.89C240.38,572.61 238.53,570.75 236.25,570.75ZM238.75,578.76C238.75,580.14 237.63,581.26 236.25,581.26L232.94,581.26C231.56,581.26 230.44,580.14 230.44,578.76L230.44,574.89C230.44,573.51 231.56,572.39 232.94,572.39L236.25,572.39C237.63,572.39 238.75,573.51 238.75,574.89L238.75,578.76Z" style="fill:rgb(18,48,255);fill-rule:nonzero;"></path>
        <path d="M249.32,570.75L246.01,570.75C243.73,570.75 241.88,572.6 241.88,574.89L241.88,578.76C241.88,581.04 243.73,582.9 246.01,582.9L249.32,582.9C251.6,582.9 253.45,581.04 253.45,578.76L253.45,574.89C253.45,572.61 251.6,570.75 249.32,570.75ZM251.82,578.76C251.82,580.14 250.7,581.26 249.32,581.26L246.01,581.26C244.63,581.26 243.51,580.14 243.51,578.76L243.51,574.89C243.51,573.51 244.63,572.39 246.01,572.39L249.32,572.39C250.7,572.39 251.82,573.51 251.82,574.89L251.82,578.76Z" style="fill:rgb(18,48,255);fill-rule:nonzero;"></path>
        <path d="M262.98,570.75L259.67,570.75C257.39,570.75 255.54,572.6 255.54,574.89L255.54,578.76C255.54,581.04 257.39,582.9 259.67,582.9L262.98,582.9C265.26,582.9 267.11,581.04 267.11,578.76L267.11,574.89C267.11,572.61 265.26,570.75 262.98,570.75ZM265.47,578.76C265.47,580.14 264.35,581.26 262.97,581.26L259.66,581.26C258.28,581.26 257.16,580.14 257.16,578.76L257.16,574.89C257.16,573.51 258.28,572.39 259.66,572.39L262.97,572.39C264.35,572.39 265.47,573.51 265.47,574.89L265.47,578.76Z" style="fill:rgb(18,48,255);fill-rule:nonzero;"></path>
        <path d="M235.95,585.14L232.64,585.14C230.36,585.14 228.51,587 228.51,589.28L228.51,593.15C228.51,595.43 230.36,597.29 232.64,597.29L235.95,597.29C238.23,597.29 240.08,595.43 240.08,593.15L240.08,589.28C240.08,587 238.23,585.14 235.95,585.14ZM238.45,593.15C238.45,594.53 237.33,595.65 235.95,595.65L232.64,595.65C231.26,595.65 230.14,594.53 230.14,593.15L230.14,589.28C230.14,587.9 231.26,586.78 232.64,586.78L235.95,586.78C237.33,586.78 238.45,587.9 238.45,589.28L238.45,593.15Z" style="fill:rgb(18,48,255);fill-rule:nonzero;"></path>
        <path d="M249.02,585.14L245.71,585.14C243.43,585.14 241.58,587 241.58,589.28L241.58,593.15C241.58,595.43 243.43,597.29 245.71,597.29L249.02,597.29C251.3,597.29 253.15,595.43 253.15,593.15L253.15,589.28C253.15,587 251.3,585.14 249.02,585.14ZM251.52,593.15C251.52,594.53 250.4,595.65 249.02,595.65L245.71,595.65C244.33,595.65 243.21,594.53 243.21,593.15L243.21,589.28C243.21,587.9 244.33,586.78 245.71,586.78L249.02,586.78C250.4,586.78 251.52,587.9 251.52,589.28L251.52,593.15Z" style="fill:rgb(18,48,255);fill-rule:nonzero;"></path>
        <path d="M262.68,585.14L259.37,585.14C257.1,585.14 255.24,587 255.24,589.28L255.24,593.15C255.24,595.43 257.09,597.29 259.37,597.29L262.68,597.29C264.95,597.29 266.81,595.43 266.81,593.15L266.81,589.28C266.81,587 264.96,585.14 262.68,585.14ZM265.18,593.15C265.18,594.53 264.06,595.65 262.68,595.65L259.37,595.65C257.99,595.65 256.87,594.53 256.87,593.15L256.87,589.28C256.87,587.9 257.99,586.78 259.37,586.78L262.68,586.78C264.06,586.78 265.18,587.9 265.18,589.28L265.18,593.15Z" style="fill:rgb(18,48,255);fill-rule:nonzero;"></path>
        <path d="M235.95,599.52L232.64,599.52C230.36,599.52 228.51,601.38 228.51,603.66L228.51,607.53C228.51,609.81 230.36,611.67 232.64,611.67L235.95,611.67C238.23,611.67 240.08,609.81 240.08,607.53L240.08,603.66C240.08,601.38 238.23,599.52 235.95,599.52ZM238.45,607.53C238.45,608.91 237.33,610.03 235.95,610.03L232.64,610.03C231.26,610.03 230.14,608.91 230.14,607.53L230.14,603.66C230.14,602.28 231.26,601.16 232.64,601.16L235.95,601.16C237.33,601.16 238.45,602.28 238.45,603.66L238.45,607.53Z" style="fill:rgb(18,48,255);fill-rule:nonzero;"></path>
        <path d="M249.02,599.52L245.71,599.52C243.43,599.52 241.58,601.38 241.58,603.66L241.58,607.53C241.58,609.81 243.43,611.67 245.71,611.67L249.02,611.67C251.3,611.67 253.15,609.81 253.15,607.53L253.15,603.66C253.15,601.38 251.3,599.52 249.02,599.52ZM251.52,607.53C251.52,608.91 250.4,610.03 249.02,610.03L245.71,610.03C244.33,610.03 243.21,608.91 243.21,607.53L243.21,603.66C243.21,602.28 244.33,601.16 245.71,601.16L249.02,601.16C250.4,601.16 251.52,602.28 251.52,603.66L251.52,607.53Z" style="fill:rgb(18,48,255);fill-rule:nonzero;"></path>
        <path d="M262.68,599.52L259.37,599.52C257.1,599.52 255.24,601.38 255.24,603.66L255.24,607.53C255.24,609.81 257.09,611.67 259.37,611.67L262.68,611.67C264.95,611.67 266.81,609.81 266.81,607.53L266.81,603.66C266.81,601.38 264.96,599.52 262.68,599.52ZM265.18,607.53C265.18,608.91 264.06,610.03 262.68,610.03L259.37,610.03C257.99,610.03 256.87,608.91 256.87,607.53L256.87,603.66C256.87,602.28 257.99,601.16 259.37,601.16L262.68,601.16C264.06,601.16 265.18,602.28 265.18,603.66L265.18,607.53Z" style="fill:rgb(18,48,255);fill-rule:nonzero;"></path>
    </g>
</svg>
