<svg xmlns="http://www.w3.org/2000/svg" viewBox="0 0 60 60" role="img" aria-label="United States flag">
  <defs>
    <clipPath id="us-clip"><rect width="60" height="60" rx="6" ry="6"/></clipPath>
  </defs>
  <g clip-path="url(#us-clip)">
    <rect width="60" height="60" fill="#fff"/>
    <g fill="#B22234">
      <rect y="0" width="60" height="4.615"/>
      <rect y="9.231" width="60" height="4.615"/>
      <rect y="18.462" width="60" height="4.615"/>
      <rect y="27.692" width="60" height="4.615"/>
      <rect y="36.923" width="60" height="4.615"/>
      <rect y="46.154" width="60" height="4.615"/>
      <rect y="55.385" width="60" height="4.615"/>
    </g>
    <rect width="24" height="32.308" fill="#3C3B6E"/>
    <g fill="#fff">
      <circle cx="2.5" cy="2.8" r="1"/><circle cx="7" cy="2.8" r="1"/><circle cx="11.5" cy="2.8" r="1"/><circle cx="16" cy="2.8" r="1"/><circle cx="20.5" cy="2.8" r="1"/>
      <circle cx="4.75" cy="6" r="1"/><circle cx="9.25" cy="6" r="1"/><circle cx="13.75" cy="6" r="1"/><circle cx="18.25" cy="6" r="1"/>
      <circle cx="2.5" cy="9.2" r="1"/><circle cx="7" cy="9.2" r="1"/><circle cx="11.5" cy="9.2" r="1"/><circle cx="16" cy="9.2" r="1"/><circle cx="20.5" cy="9.2" r="1"/>
      <circle cx="4.75" cy="12.4" r="1"/><circle cx="9.25" cy="12.4" r="1"/><circle cx="13.75" cy="12.4" r="1"/><circle cx="18.25" cy="12.4" r="1"/>
      <circle cx="2.5" cy="15.6" r="1"/><circle cx="7" cy="15.6" r="1"/><circle cx="11.5" cy="15.6" r="1"/><circle cx="16" cy="15.6" r="1"/><circle cx="20.5" cy="15.6" r="1"/>
      <circle cx="4.75" cy="18.8" r="1"/><circle cx="9.25" cy="18.8" r="1"/><circle cx="13.75" cy="18.8" r="1"/><circle cx="18.25" cy="18.8" r="1"/>
      <circle cx="2.5" cy="22" r="1"/><circle cx="7" cy="22" r="1"/><circle cx="11.5" cy="22" r="1"/><circle cx="16" cy="22" r="1"/><circle cx="20.5" cy="22" r="1"/>
      <circle cx="4.75" cy="25.2" r="1"/><circle cx="9.25" cy="25.2" r="1"/><circle cx="13.75" cy="25.2" r="1"/><circle cx="18.25" cy="25.2" r="1"/>
      <circle cx="2.5" cy="28.4" r="1"/><circle cx="7" cy="28.4" r="1"/><circle cx="11.5" cy="28.4" r="1"/><circle cx="16" cy="28.4" r="1"/><circle cx="20.5" cy="28.4" r="1"/>
    </g>
  </g>
</svg>
